<svg width="78" height="62" viewBox="0 0 78 62" fill="none" xmlns="http://www.w3.org/2000/svg">
<path d="M77.7346 55.4059C77.7346 58.9097 74.8521 61.7766 71.3286 61.7766H7.26145C3.73796 61.7766 0.855469 58.9103 0.855469 55.4059V6.98638C0.855469 3.48259 3.73796 0.616211 7.26145 0.616211H71.3286C74.8521 0.616211 77.7346 3.48259 77.7346 6.98638V55.4059ZM7.26145 5.71268C6.581 5.71268 5.98116 6.31141 5.98116 6.98582V55.4054C5.98116 56.082 6.58156 56.6785 7.26145 56.6785H71.3286C72.0069 56.6785 72.6106 56.082 72.6106 55.4054V6.98582C72.6106 6.31141 72.0069 5.71268 71.3286 5.71268H7.26145ZM18.7948 26.0991C14.5503 26.0991 11.1046 22.6749 11.1046 18.4553C11.1046 14.2356 14.5503 10.8097 18.7948 10.8097C23.0377 10.8097 26.48 14.2356 26.48 18.4553C26.48 22.6749 23.0382 26.0991 18.7948 26.0991ZM67.4833 51.5837H11.1046V43.937L23.9188 31.1978L30.3248 37.5663L50.8259 17.1821L67.4833 33.7463V51.5837Z" fill="#C1C1C1"/>
</svg>
