<svg width="24" height="24" viewBox="0 0 24 24" fill="none" xmlns="http://www.w3.org/2000/svg">
<path d="M16.191 2H7.81C4.77 2 3 3.78 3 6.83V17.16C3 20.26 4.77 22 7.81 22H16.191C19.28 22 21 20.26 21 17.16V6.83C21 3.78 19.28 2 16.191 2Z" fill="#117AB3"/>
<path fill-rule="evenodd" clip-rule="evenodd" d="M8.08078 6.65039V6.66039C7.64978 6.66039 7.30078 7.01039 7.30078 7.44039C7.30078 7.87039 7.64978 8.22039 8.08078 8.22039H11.0698C11.5008 8.22039 11.8508 7.87039 11.8508 7.42939C11.8508 7.00039 11.5008 6.65039 11.0698 6.65039H8.08078ZM15.9208 12.7407H8.08078C7.64978 12.7407 7.30078 12.3907 7.30078 11.9607C7.30078 11.5307 7.64978 11.1797 8.08078 11.1797H15.9208C16.3508 11.1797 16.7008 11.5307 16.7008 11.9607C16.7008 12.3907 16.3508 12.7407 15.9208 12.7407ZM15.9209 17.3104H8.08094C7.78094 17.3504 7.49094 17.2004 7.33094 16.9504C7.17094 16.6904 7.17094 16.3604 7.33094 16.1104C7.49094 15.8504 7.78094 15.7104 8.08094 15.7404H15.9209C16.3199 15.7804 16.6209 16.1204 16.6209 16.5304C16.6209 16.9294 16.3199 17.2704 15.9209 17.3104Z" fill="#F0F1F6"/>
</svg>
