<svg width="24" height="24" viewBox="0 0 24 24" fill="none" xmlns="http://www.w3.org/2000/svg">
<path d="M12.7824 4.02622C12.6455 4.06858 6.77692 6.95889 6.70849 7.02081C6.68894 7.03384 6.86816 7.04688 7.10277 7.04688H7.52964L10.8338 6.14752C12.6488 5.65223 14.1477 5.23514 14.164 5.2221C14.177 5.20907 14.1021 5.01356 13.9913 4.78872C13.7762 4.35208 13.6426 4.19241 13.3885 4.08162C13.2027 3.9969 12.9583 3.97735 12.7824 4.02622Z" fill="#3CA887"/>
<path d="M12.9606 6.14752C11.2401 6.61675 9.80956 7.01103 9.7835 7.02407C9.75743 7.03384 11.4747 7.04362 13.6025 7.04362L17.4671 7.04688L17.3726 6.69495C17.3205 6.5027 17.2455 6.23224 17.2097 6.09539C17.0663 5.56425 16.7339 5.28401 16.2517 5.29053C16.1441 5.29053 15.0362 5.57728 12.9606 6.14752Z" fill="#3CA887"/>
<path d="M4.29728 7.75072C4.18323 7.78657 4.08548 7.85499 3.94862 7.98859C3.62928 8.30793 3.65535 7.7605 3.66513 13.9224L3.6749 19.3152L3.74985 19.4619C3.85738 19.6671 4.03008 19.8366 4.22559 19.9246L4.39178 19.9995H11.5279C18.2307 19.9995 18.6706 19.9963 18.7879 19.9441C19.0063 19.8464 19.1594 19.6965 19.2637 19.4879L19.3647 19.2892V17.8782V16.4673L16.4418 16.4575L13.5156 16.4477L13.3234 16.3728C12.7792 16.1675 12.4175 15.7732 12.2807 15.2388C12.2383 15.0726 12.2285 14.8282 12.2285 13.8702C12.2285 13.225 12.2448 12.6124 12.2611 12.5049C12.3328 12.065 12.6684 11.6023 13.0692 11.3872C13.4537 11.1819 13.3918 11.1852 16.5233 11.1852H19.3679L19.3582 9.75797L19.3484 8.334L19.2604 8.18736C19.1529 8.00489 19.0323 7.88758 18.8433 7.78982L18.6967 7.71488L11.5768 7.70836C5.30742 7.7051 4.4374 7.70836 4.29728 7.75072Z" fill="#3CA887"/>
<path d="M13.5808 11.8824C13.3071 11.9606 13.1115 12.1235 12.9714 12.3907C12.8965 12.5374 12.8965 12.5406 12.8965 13.8082C12.8965 15.0758 12.8965 15.079 12.9747 15.2485C13.0627 15.4472 13.2484 15.6265 13.4635 15.7275C13.6134 15.7959 13.6166 15.7959 16.6112 15.7959C19.6058 15.7959 19.609 15.7959 19.7589 15.7275C19.9642 15.633 20.15 15.457 20.2445 15.268L20.3259 15.1116L20.3357 13.8962C20.3487 12.4364 20.3455 12.4201 20.0555 12.1333C19.7361 11.8172 19.9642 11.8368 16.6145 11.8401C14.5257 11.8433 13.6753 11.8531 13.5808 11.8824ZM15.5554 13.3129C15.7184 13.4204 15.7803 13.5703 15.7803 13.8506C15.7803 14.2872 15.6336 14.4501 15.2296 14.4729C14.9363 14.486 14.7799 14.4436 14.6561 14.3133C14.5648 14.2188 14.5583 14.1927 14.5486 13.9027C14.5323 13.5377 14.5681 13.4302 14.7343 13.3162C14.8353 13.2477 14.8874 13.238 15.1481 13.238C15.4023 13.238 15.4609 13.2477 15.5554 13.3129Z" fill="#3CA887"/>
</svg>
