<svg width="18" height="18" viewBox="0 0 18 18" fill="none" xmlns="http://www.w3.org/2000/svg">
<path d="M12.5985 17.0279C12.0946 16.9146 11.7196 16.7584 11.2665 16.4732C11.0243 16.3209 8.75477 14.0865 8.66102 13.9068C8.5243 13.6451 8.62586 13.2857 8.88368 13.1138C9.02821 13.0162 9.33289 12.9927 9.48133 13.067C9.52821 13.0904 10.079 13.6138 10.7001 14.231C11.3251 14.8482 11.9227 15.4107 12.0282 15.4771C12.8016 15.9576 13.8524 15.9771 14.6454 15.524C15.8407 14.8404 16.2196 13.1763 15.4501 11.9966C15.3485 11.8365 14.622 11.0826 13.329 9.79742C11.454 7.93414 11.3485 7.83648 11.0477 7.68023C10.6063 7.45367 10.2899 7.38726 9.78211 7.4107C9.13758 7.43805 8.68446 7.62164 8.16883 8.06305C7.92664 8.27008 7.76649 8.32476 7.52821 8.27789C7.3368 8.24273 7.10243 8.00836 7.06727 7.81695C7.01258 7.53961 7.07118 7.40289 7.35633 7.12555C7.8368 6.66461 8.5868 6.29742 9.28211 6.18805C9.70008 6.12164 10.454 6.1568 10.8563 6.26226C11.2587 6.37164 11.8016 6.63726 12.1259 6.88336C12.5126 7.18023 16.3134 11.0123 16.4735 11.2662C16.6923 11.6138 16.8446 11.942 16.9579 12.3091C17.0556 12.6295 17.0634 12.6998 17.0634 13.3755C17.0634 14.0513 17.0556 14.1216 16.9579 14.442C16.5712 15.692 15.6806 16.5826 14.4423 16.9537C14.1454 17.0435 14.0126 17.0591 13.4735 17.0709C13.0282 17.0826 12.7782 17.067 12.5985 17.0279Z" fill="#00AEEF"/>
<path d="M7.32031 11.7774C6.76953 11.6563 6.26562 11.4219 5.83984 11.0899C5.53125 10.8516 1.69141 6.98444 1.55078 6.7735C1.35547 6.48444 1.15625 6.05475 1.04297 5.69147C0.945312 5.37116 0.9375 5.30085 0.9375 4.62506C0.9375 3.94538 0.945312 3.87897 1.04688 3.55085C1.16797 3.1485 1.42969 2.63288 1.66406 2.32819C2.19141 1.6485 3.00391 1.1485 3.87891 0.972721C4.33594 0.878971 5.22266 0.910221 5.64062 1.03132C5.98828 1.12897 6.49609 1.36335 6.76172 1.54303C6.99609 1.69928 9.25781 3.93756 9.33984 4.09381C9.47656 4.35553 9.375 4.71491 9.11719 4.88678C8.97266 4.98444 8.66797 5.00788 8.51953 4.93366C8.47266 4.91022 7.91406 4.37506 7.28125 3.74616C6.36328 2.83991 6.07812 2.57819 5.875 2.46491C4.91016 1.93756 3.71484 2.07819 2.91016 2.80866C2.67969 3.01569 2.38672 3.47272 2.28516 3.77741C2.05078 4.48444 2.12109 5.26178 2.48047 5.90631C2.57422 6.07428 3.09766 6.62116 4.62109 8.1446C6.55078 10.0743 6.64844 10.168 6.95312 10.3204C7.34766 10.5196 7.67188 10.6016 8.10547 10.6016C8.70703 10.6016 9.25781 10.4063 9.71484 10.0274C10.0156 9.78522 10.1641 9.70319 10.3203 9.70319C10.7227 9.70319 11.0117 10.0626 10.9336 10.4727C10.8828 10.7579 10.2148 11.2969 9.58984 11.5587C9.09375 11.7657 8.83594 11.8204 8.21875 11.836C7.76562 11.8477 7.58594 11.836 7.32031 11.7774Z" fill="#00AEEF"/>
</svg>
