<svg width="16" height="16" viewBox="0 0 16 16" fill="none" xmlns="http://www.w3.org/2000/svg">
<path d="M14.3327 4C14.3327 4.34189 14.0753 4.62367 13.7438 4.66218L13.666 4.66667H13.1029L12.2819 13.0128C12.1896 13.9513 11.4004 14.6667 10.4574 14.6667H5.5413C4.59829 14.6667 3.80908 13.9513 3.71677 13.0128L2.89584 4.66667H2.33268C1.96449 4.66667 1.66602 4.36819 1.66602 4C1.66602 3.63181 1.96449 3.33333 2.33268 3.33333H5.66602C5.66602 2.04467 6.71068 1 7.99935 1C9.28801 1 10.3327 2.04467 10.3327 3.33333H13.666C14.0342 3.33333 14.3327 3.63181 14.3327 4ZM9.49935 6.16667C9.24622 6.16667 9.03702 6.35477 9.00391 6.59882L8.99935 6.66667V11.3333L9.00391 11.4012C9.03702 11.6452 9.24622 11.8333 9.49935 11.8333C9.75248 11.8333 9.96168 11.6452 9.99479 11.4012L9.99935 11.3333V6.66667L9.99479 6.59882C9.96168 6.35477 9.75248 6.16667 9.49935 6.16667ZM6.49935 6.16667C6.24622 6.16667 6.03702 6.35477 6.00391 6.59882L5.99935 6.66667V11.3333L6.00391 11.4012C6.03702 11.6452 6.24622 11.8333 6.49935 11.8333C6.75248 11.8333 6.96168 11.6452 6.99478 11.4012L6.99935 11.3333V6.66667L6.99478 6.59882C6.96168 6.35477 6.75248 6.16667 6.49935 6.16667ZM7.99935 2.33333C7.44706 2.33333 6.99935 2.78105 6.99935 3.33333H8.99935C8.99935 2.78105 8.55163 2.33333 7.99935 2.33333Z" fill="#8C9196"/>
</svg>
